Coordinates
version=1
nRows=29
nColumns=24
inDegrees=yes

Units are S.I. units (second, meters, Newtons, ...)
Angles are in degrees.

endheader
time	pelvis_tilt	pelvis_list	pelvis_rotation	pelvis_tx	pelvis_ty	pelvis_tz	hip_flexion_r	hip_adduction_r	hip_rotation_r	knee_angle_r	ankle_angle_r	subtalar_angle_r	mtp_angle_r	hip_flexion_l	hip_adduction_l	hip_rotation_l	knee_angle_l	ankle_angle_l	subtalar_angle_l	mtp_angle_l	lumbar_extension	lumbar_bending	lumbar_rotation
      4.65000000	     68.69308157	      5.81536313	      0.19645563	      0.77075696	      1.02763118	     -0.28531256	     -8.12166070	    -11.38135796	     -3.43780803	    -58.45987604	     -8.20675940	    -19.29274538	2578425.77386740	     -6.67504568	     -2.62671321	    -10.05758690	    -60.15379559	      5.95076649	     -7.15688882	-834962.91327963	      0.00000000	      0.00000000	      0.00000000
      4.66000000	     68.76589892	      5.84176412	      0.25067492	      0.77078048	      1.02804628	     -0.28544404	     -8.09976210	    -11.51119791	     -3.30048758	    -58.93781850	     -9.27002691	    -18.23717634	2624729.18016692	     -6.64645282	     -2.65818025	    -10.03322419	    -60.22799034	      6.32340975	     -6.57915150	-851388.63280702	      0.00000000	      0.00000000	      0.00000000
      4.67000000	     68.80852033	      5.89060142	      0.28564044	      0.77099218	      1.02871710	     -0.28587958	     -8.19928822	    -11.62753933	     -3.18141664	    -59.27423488	    -11.05091369	    -17.07986507	2671498.87969513	     -6.63735999	     -2.59063372	    -10.00763984	    -60.34561983	      6.80676692	     -5.81084692	-868040.17168993	      0.00000000	      0.00000000	      0.00000000
      4.68000000	     68.75931184	      5.93098398	      0.28677020	      0.77107785	      1.02865376	     -0.28623965	     -8.40781036	    -11.70447136	     -3.12438300	    -59.58471418	    -13.29315501	    -15.88425737	2718734.52807265	     -6.69734041	     -2.41364388	     -9.96983529	    -60.46862861	      7.35766824	     -4.91252711	-884919.47710218	      0.00000000	      0.00000000	      0.00000000
      4.69000000	     68.65545653	      5.95123539	      0.26608695	      0.77092201	      1.02801983	     -0.28621013	     -8.64728664	    -11.76616721	     -3.11953134	    -59.91112891	    -15.59375259	    -14.77097639	2766435.67851420	     -6.82636275	     -2.19580590	     -9.88392826	    -60.53480522	      7.91892458	     -3.97993707	-902028.49157957	      0.00000000	      0.00000000	      0.00000000
      4.70000000	     68.60414680	      5.97274615	      0.23688182	      0.77089406	      1.02775070	     -0.28602143	     -8.82010353	    -11.84909485	     -3.12636137	    -60.23739274	    -17.49642024	    -13.89032234	2814601.80057185	     -6.96705904	     -2.04861097	     -9.71396307	    -60.48092705	      8.42890270	     -3.11427495	-919369.16354898	      0.00000000	      0.00000000	      0.00000000
      4.71000000	     68.65780437	      6.01290591	      0.19974242	      0.77126569	      1.02813448	     -0.28601143	     -8.88516494	    -11.95724299	     -3.11647599	    -60.54833521	    -18.60949276	    -13.37861995	2863232.29910106	     -7.06127554	     -2.03544255	     -9.46351096	    -60.29246689	      8.83235767	     -2.38729048	-936943.45631588	      0.00000000	      0.00000000	      0.00000000
      4.72000000	     68.74876445	      6.05230618	      0.15416146	      0.77160960	      1.02840462	     -0.28621627	     -8.86893502	    -12.04722708	     -3.09652878	    -60.86274236	    -18.70069641	    -13.32403547	2912326.53227020	     -7.11504507	     -2.11615529	     -9.18965244	    -60.03159032	      9.10029069	     -1.82625522	-954753.35429806	      0.00000000	      0.00000000	      0.00000000
      4.73000000	     68.77982422	      6.04702097	      0.12108431	      0.77148372	      1.02796037	     -0.28633892	     -8.79354735	    -12.06291760	     -3.09214733	    -61.20442249	    -17.74154072	    -13.75295082	2961883.82874616	     -7.19347170	     -2.18811596	     -8.97168192	    -59.80182849	      9.25638604	     -1.42964806	-972800.86571272	      0.00000000	      0.00000000	      0.00000000
      4.74000000	     68.74001454	      5.97681347	      0.12740499	      0.77121831	      1.02727877	     -0.28615105	     -8.63906417	    -11.98383223	     -3.11984592	    -61.56298162	    -15.90868153	    -14.62366313	3011903.50589170	     -7.34397229	     -2.18448238	     -8.85817271	    -59.67218044	      9.39233613	     -1.19783314	-991088.02124113	      0.00000000	      0.00000000	      0.00000000
      4.75000000	     68.68827861	      5.87613294	      0.15798311	      0.77121318	      1.02722394	     -0.28591420	     -8.40884072	    -11.83759136	     -3.17842465	    -61.90063446	    -13.55477028	    -15.81778890	3062384.89039901	     -7.53037208	     -2.12731808	     -8.84050986	    -59.63154649	      9.64745247	     -1.14916120	-1009616.86870688	      0.00000000	      0.00000000	      0.00000000
      4.76000000	     68.67079970	      5.80259783	      0.16364194	      0.77135268	      1.02793813	     -0.28593554	     -8.17617099	    -11.68563650	     -3.24942201	    -62.17163971	    -11.14287682	    -17.14432786	3113327.33987297	     -7.65568896	     -2.08981977	     -8.87334948	    -59.61531496	     10.14433296	     -1.30540895	-1028389.46473488	      0.00000000	      0.00000000	      0.00000000
      4.77000000	     68.68456419	      5.78470729	      0.12523468	      0.77137422	      1.02864485	     -0.28613082	     -8.02742244	    -11.59144895	     -3.30319679	    -62.32747225	     -9.14488967	    -18.37073503	3164730.26476914	     -7.65698742	     -2.11860599	     -8.91631395	    -59.57425494	     10.90735331	     -1.65896552	-1047407.86558712	      0.00000000	      0.00000000	      0.00000000
      4.78000000	     68.70388336	      5.80875351	      0.08507268	      0.77120886	      1.02856779	     -0.28629617	     -7.97908746	    -11.58275487	     -3.31732264	    -62.32887245	     -7.93043021	    -19.27447987	3216593.15116452	     -7.56711742	     -2.19403049	     -8.95876530	    -59.51819717	     11.81517546	     -2.15150449	-1066674.12035471	      0.00000000	      0.00000000	      0.00000000
      4.79000000	     68.72552330	      5.84130217	      0.10779199	      0.77104155	      1.02794356	     -0.28622796	     -7.97315799	    -11.64419488	     -3.29371372	    -62.17263045	     -7.68320557	    -19.69798388	3268915.58178941	     -7.47227334	     -2.25842204	     -9.01303788	    -59.49783437	     12.62204330	     -2.68334986	-1086190.26976472	      0.00000000	      0.00000000	      0.00000000
      4.80000000	     68.75931424	      5.86384633	      0.19901630	      0.77101767	      1.02756322	     -0.28585927	     -7.96985247	    -11.73349779	     -3.26620048	    -61.91882991	     -8.36929577	    -19.59076645	3321697.25080570	     -7.41573370	     -2.27427830	     -9.09146234	    -59.55054032	     13.03787867	     -3.14695331	-1105958.35256687	      0.00000000	      0.00000000	      0.00000000
      4.81000000	     68.79089511	      5.88774869	      0.27749920	      0.77106379	      1.02766477	     -0.28556815	     -8.00905950	    -11.80117919	     -3.28627994	    -61.67152565	     -9.75385478	    -19.03076589	3374937.96963431	     -7.36321055	     -2.25177042	     -9.19187424	    -59.66967072	     12.82842038	     -3.46346162	-1125980.41975233	      0.00000000	      0.00000000	      0.00000000
      4.82000000	     68.79166407	      5.92264013	      0.26358213	      0.77109154	      1.02801111	     -0.28567496	     -8.13786455	    -11.81736812	     -3.37935564	    -61.49348371	    -11.45353542	    -18.21835777	3428637.66322651	     -7.27208896	     -2.21994647	     -9.30430737	    -59.82855172	     11.89981255	     -3.60532587	-1146258.55575289	      0.00000000	      0.00000000	      0.00000000
      4.83000000	     68.75504261	      5.94964549	      0.17336083	      0.77110380	      1.02840776	     -0.28595185	     -8.31745290	    -11.78952833	     -3.50951181	    -61.33544110	    -13.02582155	    -17.43329869	3482796.35659701	     -7.16241622	     -2.19340877	     -9.42196552	    -60.01502103	     10.34726760	     -3.60244330	-1166794.90416434	      0.00000000	      0.00000000	      0.00000000
      4.84000000	     68.70688082	      5.94541714	      0.09520113	      0.77116567	      1.02855071	     -0.28611520	     -8.44918476	    -11.75506672	     -3.59488243	    -61.06452614	    -14.08842564	    -16.95787448	3537414.15277535	     -7.08758297	     -2.18454759	     -9.53778617	    -60.22334511	      8.45298076	     -3.53499436	-1187591.69377283	      0.00000000	      0.00000000	      0.00000000
      4.85000000	     68.68629751	      5.90924583	      0.09887693	      0.77128250	      1.02817700	     -0.28609135	     -8.47211614	    -11.75270624	     -3.56586294	    -60.56849127	    -14.43160093	    -16.99314591	3592491.20691020	     -7.05828409	     -2.21685412	     -9.64177562	    -60.42779127	      6.62012469	     -3.50934386	-1208651.26015920	      0.00000000	      0.00000000	      0.00000000
      4.86000000	     68.72140820	      5.86371938	      0.17936207	      0.77140048	      1.02774984	     -0.28591581	     -8.40917086	    -11.78538557	     -3.42065136	    -59.84064763	    -14.07748993	    -17.60154489	3648027.70302349	     -7.02372620	     -2.30562684	     -9.72876226	    -60.58292068	      5.25175632	     -3.61837234	-1229976.05846876	      0.00000000	      0.00000000	      0.00000000
      4.87000000	     68.79683941	      5.83736906	      0.26882307	      0.77143872	      1.02780882	     -0.28570387	     -8.34350743	    -11.81109029	     -3.23108766	    -58.97985760	    -13.26677868	    -18.69198089	3704023.83652507	     -6.92858968	     -2.43512114	     -9.80411482	    -60.65540828	      4.61994327	     -3.90220590	-1251568.66352342	      0.00000000	      0.00000000	      0.00000000
      4.88000000	     68.85123722	      5.84047813	      0.30015844	      0.77113514	      1.02808766	     -0.28553097	     -8.35354099	    -11.77961194	     -3.09165978	    -58.11108434	    -12.38047964	    -20.04853349	3760479.80232104	     -6.77836251	     -2.55869570	     -9.88031126	    -60.65798395	      4.78541304	     -4.33062444	-1273431.75543679	      0.00000000	      0.00000000	      0.00000000
      4.89000000	     68.84722677	      5.86105901	      0.26620371	      0.77047373	      1.02829892	     -0.28550932	     -8.44260294	    -11.68362345	     -3.05265579	    -57.29001577	    -11.82429176	    -21.39198254	3817395.78906590	     -6.63755972	     -2.63142666	     -9.96378486	    -60.64489112	      5.60251773	     -4.81932459	-1295568.09263203	      0.00000000	      0.00000000	      0.00000000
      4.90000000	     68.81256919	      5.87599483	      0.22049261	      0.77006689	      1.02866051	     -0.28563062	     -8.54890090	    -11.57504596	     -3.09231253	    -56.47639026	    -11.91532950	    -22.45165156	3874771.98046032	     -6.57119256	     -2.63806053	    -10.04722717	    -60.67404183	      6.79687775	     -5.26986720	-1317980.47699428	      0.00000000	      0.00000000	      0.00000000
      4.91000000	     68.78056843	      5.87079113	      0.21230739	      0.77033876	      1.02908059	     -0.28564527	     -8.64747070	    -11.52281159	     -3.15100485	    -55.60231632	    -12.79994707	    -23.02869641	3932608.56253759	     -6.58764101	     -2.58987197	    -10.11688014	    -60.77032664	      8.06871962	     -5.60968121	-1340671.71625706	      0.00000000	      0.00000000	      0.00000000
      4.92000000	     68.74403973	      5.86178094	      0.22866053	      0.77094822	      1.02889451	     -0.28551929	     -8.80239881	    -11.56070210	     -3.18459467	    -54.65513986	    -14.41265207	    -23.04036328	3990905.73428197	     -6.62542579	     -2.51959551	    -10.15947721	    -60.90808520	      9.17060820	     -5.81310855	-1363644.58799612	      0.00000000	      0.00000000	      0.00000000
      4.93000000	     68.69984134	      5.88201540	      0.22524590	      0.77138050	      1.02804590	     -0.28546050	     -9.07713289	    -11.67860021	     -3.18303501	    -53.68764285	    -16.48257371	    -22.53452776	4049663.71796782	     -6.60802298	     -2.46971147	    -10.16666375	    -61.02892884	      9.93143697	     -5.89369389	-1386901.80872582	      0.00000000	      0.00000000	      0.00000000
